<svg data-v-423bf9ae="" xmlns="http://www.w3.org/2000/svg" viewBox="0 0 693 95" class="iconLeftSlogan"><!----><!----><!----><g data-v-423bf9ae="" id="2666c483-4284-4780-bf2a-515be2138f60" fill="black" transform="matrix(4.240282514041758,0,0,4.240282514041758,116.16588891757237,-11.151943020354487)"><path d="M2.52 13.78L2.52 4.29L0.13 4.29L0.13 2.80L6.62 2.80L6.62 4.29L4.23 4.29L4.23 13.78L2.52 13.78ZM7.68 13.78L7.68 2.80L9.31 2.80L9.31 6.88L9.39 6.88L9.39 6.88Q9.69 6.22 10.18 5.85L10.18 5.85L10.18 5.85Q10.68 5.48 11.35 5.48L11.35 5.48L11.35 5.48Q12.02 5.48 12.53 5.81L12.53 5.81L12.53 5.81Q13.04 6.15 13.31 6.77L13.31 6.77L13.31 6.77Q13.59 7.40 13.59 8.24L13.59 8.24L13.59 13.78L11.94 13.78L11.94 8.46L11.94 8.46Q11.94 7.62 11.65 7.25L11.65 7.25L11.65 7.25Q11.36 6.89 10.80 6.89L10.80 6.89L10.80 6.89Q10.36 6.89 10.03 7.14L10.03 7.14L10.03 7.14Q9.70 7.40 9.52 7.86L9.52 7.86L9.52 7.86Q9.34 8.33 9.34 8.94L9.34 8.94L9.34 13.78L7.68 13.78ZM20.91 9.44L20.91 9.44Q20.91 9.97 20.87 10.19L20.87 10.19L16.39 10.19L16.39 10.19Q16.40 10.86 16.61 11.40L16.61 11.40L16.61 11.40Q16.82 11.94 17.22 12.26L17.22 12.26L17.22 12.26Q17.62 12.57 18.18 12.57L18.18 12.57L18.18 12.57Q19.09 12.57 19.65 11.77L19.65 11.77L20.77 12.37L20.77 12.37Q20.32 13.23 19.65 13.59L19.65 13.59L19.65 13.59Q18.98 13.95 18.12 13.95L18.12 13.95L18.12 13.95Q17.08 13.95 16.32 13.40L16.32 13.40L16.32 13.40Q15.56 12.86 15.16 11.90L15.16 11.90L15.16 11.90Q14.77 10.95 14.77 9.73L14.77 9.73L14.77 9.73Q14.77 8.51 15.09 7.56L15.09 7.56L15.09 7.56Q15.41 6.60 16.12 6.04L16.12 6.04L16.12 6.04Q16.82 5.48 17.92 5.48L17.92 5.48L17.92 5.48Q19.55 5.48 20.23 6.58L20.23 6.58L20.23 6.58Q20.91 7.69 20.91 9.44L20.91 9.44ZM17.96 6.80L17.96 6.80Q17.14 6.80 16.78 7.42L16.78 7.42L16.78 7.42Q16.43 8.05 16.40 9.04L16.40 9.04L19.49 9.04L19.49 9.04Q19.47 8.31 19.34 7.83L19.34 7.83L19.34 7.83Q19.20 7.35 18.87 7.08L18.87 7.08L18.87 7.08Q18.54 6.80 17.96 6.80L17.96 6.80ZM30.59 13.78L30.08 11.52L26.81 11.52L26.29 13.78L24.53 13.78L27.32 2.80L29.56 2.80L32.35 13.78L30.59 13.78ZM27.13 10.12L29.76 10.12L28.61 4.99L28.49 4.12L28.44 4.12L28.30 4.99L27.13 10.12ZM33.71 13.78L33.71 6.79L32.63 6.79L32.63 5.63L33.73 5.63L33.73 5.11L33.73 5.11Q33.73 4.05 34.24 3.43L34.24 3.43L34.24 3.43Q34.75 2.80 35.70 2.80L35.70 2.80L36.82 2.80L36.82 4.00L36.15 4.00L36.15 4.00Q35.76 4.00 35.54 4.29L35.54 4.29L35.54 4.29Q35.33 4.57 35.33 5.06L35.33 5.06L35.33 5.63L36.82 5.63L36.82 6.79L35.38 6.79L35.38 13.78L33.71 13.78ZM39.75 13.78L39.75 13.78Q38.73 13.78 38.28 13.23L38.28 13.23L38.28 13.23Q37.84 12.68 37.84 11.49L37.84 11.49L37.84 6.79L36.91 6.79L36.91 5.63L37.93 5.63L38.24 3.76L39.48 3.76L39.48 5.63L41.08 5.63L41.08 6.79L39.48 6.79L39.48 11.11L39.48 11.11Q39.48 11.64 39.57 11.93L39.57 11.93L39.57 11.93Q39.66 12.22 39.86 12.34L39.86 12.34L39.86 12.34Q40.06 12.46 40.44 12.46L40.44 12.46L40.99 12.46L40.99 13.78L39.75 13.78ZM47.87 9.44L47.87 9.44Q47.87 9.97 47.82 10.19L47.82 10.19L43.34 10.19L43.34 10.19Q43.35 10.86 43.57 11.40L43.57 11.40L43.57 11.40Q43.78 11.94 44.18 12.26L44.18 12.26L44.18 12.26Q44.58 12.57 45.13 12.57L45.13 12.57L45.13 12.57Q46.05 12.57 46.61 11.77L46.61 11.77L47.72 12.37L47.72 12.37Q47.27 13.23 46.60 13.59L46.60 13.59L46.60 13.59Q45.93 13.95 45.07 13.95L45.07 13.95L45.07 13.95Q44.03 13.95 43.27 13.40L43.27 13.40L43.27 13.40Q42.51 12.86 42.12 11.90L42.12 11.90L42.12 11.90Q41.72 10.95 41.72 9.73L41.72 9.73L41.72 9.73Q41.72 8.51 42.04 7.56L42.04 7.56L42.04 7.56Q42.36 6.60 43.07 6.04L43.07 6.04L43.07 6.04Q43.78 5.48 44.88 5.48L44.88 5.48L44.88 5.48Q46.50 5.48 47.19 6.58L47.19 6.58L47.19 6.58Q47.87 7.69 47.87 9.44L47.87 9.44ZM44.91 6.80L44.91 6.80Q44.09 6.80 43.74 7.42L43.74 7.42L43.74 7.42Q43.38 8.05 43.35 9.04L43.35 9.04L46.44 9.04L46.44 9.04Q46.42 8.31 46.29 7.83L46.29 7.83L46.29 7.83Q46.16 7.35 45.82 7.08L45.82 7.08L45.82 7.08Q45.49 6.80 44.91 6.80L44.91 6.80ZM49.18 13.78L49.18 5.63L50.67 5.63L50.74 6.92L50.79 6.92L50.79 6.92Q51.02 6.26 51.44 5.89L51.44 5.89L51.44 5.89Q51.86 5.51 52.35 5.51L52.35 5.51L52.35 5.51Q52.86 5.51 53.11 5.65L53.11 5.65L53.11 7.20L53.11 7.20Q52.68 7.08 52.40 7.10L52.40 7.10L52.40 7.10Q51.66 7.15 51.26 7.78L51.26 7.78L51.26 7.78Q50.85 8.41 50.85 9.61L50.85 9.61L50.85 13.78L49.18 13.78ZM60.70 13.94L60.70 13.94Q59.38 13.94 58.48 13.22L58.48 13.22L58.48 13.22Q57.58 12.51 57.14 11.24L57.14 11.24L57.14 11.24Q56.70 9.97 56.70 8.29L56.70 8.29L56.70 8.29Q56.70 6.62 57.14 5.34L57.14 5.34L57.14 5.34Q57.58 4.07 58.47 3.35L58.47 3.35L58.47 3.35Q59.37 2.63 60.70 2.63L60.70 2.63L60.70 2.63Q61.58 2.63 62.31 3.00L62.31 3.00L62.31 3.00Q63.05 3.36 63.55 4.05L63.55 4.05L63.55 4.05Q64.06 4.74 64.27 5.71L64.27 5.71L62.82 6.18L62.82 6.18Q62.61 5.22 62.08 4.68L62.08 4.68L62.08 4.68Q61.55 4.14 60.73 4.14L60.73 4.14L60.73 4.14Q59.98 4.14 59.45 4.64L59.45 4.64L59.45 4.64Q58.93 5.13 58.66 6.05L58.66 6.05L58.66 6.05Q58.39 6.97 58.39 8.22L58.39 8.22L58.39 8.22Q58.39 9.51 58.67 10.46L58.67 10.46L58.67 10.46Q58.94 11.40 59.47 11.92L59.47 11.92L59.47 11.92Q59.99 12.43 60.74 12.43L60.74 12.43L60.74 12.43Q61.50 12.43 62.04 11.87L62.04 11.87L62.04 11.87Q62.58 11.31 62.82 10.36L62.82 10.36L64.29 10.85L64.29 10.85Q64.07 11.81 63.56 12.51L63.56 12.51L63.56 12.51Q63.05 13.20 62.32 13.57L62.32 13.57L62.32 13.57Q61.58 13.94 60.70 13.94L60.70 13.94ZM68.27 13.96L68.27 13.96Q67.28 13.96 66.55 13.50L66.55 13.50L66.55 13.50Q65.82 13.04 65.42 12.10L65.42 12.10L65.42 12.10Q65.02 11.15 65.02 9.73L65.02 9.73L65.02 9.73Q65.02 8.30 65.42 7.35L65.42 7.35L65.42 7.35Q65.82 6.40 66.55 5.94L66.55 5.94L66.55 5.94Q67.27 5.48 68.27 5.48L68.27 5.48L68.27 5.48Q69.26 5.48 69.99 5.94L69.99 5.94L69.99 5.94Q70.71 6.40 71.11 7.35L71.11 7.35L71.11 7.35Q71.51 8.30 71.51 9.73L71.51 9.73L71.51 9.73Q71.51 11.15 71.11 12.10L71.11 12.10L71.11 12.10Q70.71 13.04 69.99 13.50L69.99 13.50L69.99 13.50Q69.26 13.96 68.27 13.96L68.27 13.96ZM68.26 12.63L68.26 12.63Q69.06 12.63 69.49 11.96L69.49 11.96L69.49 11.96Q69.92 11.29 69.92 9.73L69.92 9.73L69.92 9.73Q69.92 8.13 69.49 7.46L69.49 7.46L69.49 7.46Q69.07 6.79 68.26 6.79L68.26 6.79L68.26 6.79Q67.48 6.79 67.06 7.46L67.06 7.46L67.06 7.46Q66.64 8.13 66.64 9.73L66.64 9.73L66.64 9.73Q66.64 11.29 67.06 11.96L67.06 11.96L67.06 11.96Q67.48 12.63 68.26 12.63L68.26 12.63ZM72.86 13.78L72.86 2.80L74.52 2.80L74.52 13.78L72.86 13.78ZM76.38 13.78L76.38 2.80L78.04 2.80L78.04 13.78L76.38 13.78ZM85.52 9.44L85.52 9.44Q85.52 9.97 85.48 10.19L85.48 10.19L80.99 10.19L80.99 10.19Q81.01 10.86 81.22 11.40L81.22 11.40L81.22 11.40Q81.43 11.94 81.83 12.26L81.83 12.26L81.83 12.26Q82.23 12.57 82.78 12.57L82.78 12.57L82.78 12.57Q83.70 12.57 84.26 11.77L84.26 11.77L85.37 12.37L85.37 12.37Q84.92 13.23 84.25 13.59L84.25 13.59L84.25 13.59Q83.58 13.95 82.72 13.95L82.72 13.95L82.72 13.95Q81.68 13.95 80.92 13.40L80.92 13.40L80.92 13.40Q80.17 12.86 79.77 11.90L79.77 11.90L79.77 11.90Q79.37 10.95 79.37 9.73L79.37 9.73L79.37 9.73Q79.37 8.51 79.69 7.56L79.69 7.56L79.69 7.56Q80.01 6.60 80.72 6.04L80.72 6.04L80.72 6.04Q81.43 5.48 82.53 5.48L82.53 5.48L82.53 5.48Q84.16 5.48 84.84 6.58L84.84 6.58L84.84 6.58Q85.52 7.69 85.52 9.44L85.52 9.44ZM82.56 6.80L82.56 6.80Q81.74 6.80 81.39 7.42L81.39 7.42L81.39 7.42Q81.03 8.05 81.01 9.04L81.01 9.04L84.10 9.04L84.10 9.04Q84.08 8.31 83.94 7.83L83.94 7.83L83.94 7.83Q83.81 7.35 83.48 7.08L83.48 7.08L83.48 7.08Q83.15 6.80 82.56 6.80L82.56 6.80ZM91.33 5.63L92.84 5.63L92.84 13.21L92.84 13.21Q92.84 14.47 92.40 15.27L92.40 15.27L92.40 15.27Q91.96 16.06 91.21 16.42L91.21 16.42L91.21 16.42Q90.47 16.78 89.52 16.78L89.52 16.78L89.52 16.78Q88.96 16.78 88.38 16.61L88.38 16.61L88.38 16.61Q87.81 16.45 87.31 16.10L87.31 16.10L87.31 16.10Q86.82 15.74 86.50 15.21L86.50 15.21L87.40 14.31L87.40 14.31Q87.79 14.95 88.35 15.22L88.35 15.22L88.35 15.22Q88.91 15.49 89.49 15.49L89.49 15.49L89.49 15.49Q90.27 15.49 90.74 14.95L90.74 14.95L90.74 14.95Q91.21 14.40 91.21 13.26L91.21 13.26L91.21 12.37L91.21 12.37Q90.88 12.95 90.38 13.29L90.38 13.29L90.38 13.29Q89.89 13.62 89.13 13.62L89.13 13.62L89.13 13.62Q88.25 13.62 87.62 13.10L87.62 13.10L87.62 13.10Q86.98 12.57 86.65 11.64L86.65 11.64L86.65 11.64Q86.31 10.71 86.31 9.52L86.31 9.52L86.31 9.52Q86.31 8.35 86.65 7.44L86.65 7.44L86.65 7.44Q86.99 6.52 87.64 6.00L87.64 6.00L87.64 6.00Q88.29 5.48 89.20 5.48L89.20 5.48L89.20 5.48Q89.86 5.48 90.38 5.77L90.38 5.77L90.38 5.77Q90.91 6.06 91.18 6.63L91.18 6.63L91.28 6.63L91.33 5.63ZM89.70 12.28L89.70 12.28Q90.55 12.28 90.96 11.57L90.96 11.57L90.96 11.57Q91.37 10.87 91.37 9.66L91.37 9.66L91.37 9.66Q91.37 8.43 90.95 7.64L90.95 7.64L90.95 7.64Q90.53 6.84 89.66 6.84L89.66 6.84L89.66 6.84Q88.82 6.84 88.40 7.59L88.40 7.59L88.40 7.59Q87.99 8.34 87.99 9.56L87.99 9.56L87.99 9.56Q87.99 10.78 88.41 11.53L88.41 11.53L88.41 11.53Q88.83 12.28 89.70 12.28L89.70 12.28ZM100.31 9.44L100.31 9.44Q100.31 9.97 100.27 10.19L100.27 10.19L95.79 10.19L95.79 10.19Q95.80 10.86 96.01 11.40L96.01 11.40L96.01 11.40Q96.22 11.94 96.62 12.26L96.62 12.26L96.62 12.26Q97.02 12.57 97.58 12.57L97.58 12.57L97.58 12.57Q98.49 12.57 99.05 11.77L99.05 11.77L100.17 12.37L100.17 12.37Q99.72 13.23 99.05 13.59L99.05 13.59L99.05 13.59Q98.38 13.95 97.51 13.95L97.51 13.95L97.51 13.95Q96.48 13.95 95.72 13.40L95.72 13.40L95.72 13.40Q94.96 12.86 94.56 11.90L94.56 11.90L94.56 11.90Q94.17 10.95 94.17 9.73L94.17 9.73L94.17 9.73Q94.17 8.51 94.49 7.56L94.49 7.56L94.49 7.56Q94.81 6.60 95.52 6.04L95.52 6.04L95.52 6.04Q96.22 5.48 97.32 5.48L97.32 5.48L97.32 5.48Q98.95 5.48 99.63 6.58L99.63 6.58L99.63 6.58Q100.31 7.69 100.31 9.44L100.31 9.44ZM97.36 6.80L97.36 6.80Q96.54 6.80 96.18 7.42L96.18 7.42L96.18 7.42Q95.83 8.05 95.80 9.04L95.80 9.04L98.89 9.04L98.89 9.04Q98.87 8.31 98.73 7.83L98.73 7.83L98.73 7.83Q98.60 7.35 98.27 7.08L98.27 7.08L98.27 7.08Q97.94 6.80 97.36 6.80L97.36 6.80ZM107.50 13.92L107.50 13.92Q106.70 13.92 106.00 13.63L106.00 13.63L106.00 13.63Q105.30 13.34 104.78 12.66L104.78 12.66L104.78 12.66Q104.27 11.98 104.08 10.87L104.08 10.87L105.52 10.37L105.52 10.37Q105.71 11.44 106.24 11.95L106.24 11.95L106.24 11.95Q106.77 12.46 107.50 12.46L107.50 12.46L107.50 12.46Q108.17 12.46 108.52 12.06L108.52 12.06L108.52 12.06Q108.88 11.66 108.88 10.88L108.88 10.88L108.88 10.88Q108.88 10.30 108.64 9.90L108.64 9.90L108.64 9.90Q108.40 9.49 108.02 9.21L108.02 9.21L108.02 9.21Q107.64 8.94 106.97 8.57L106.97 8.57L106.81 8.48L106.81 8.48Q106.07 8.07 105.61 7.73L105.61 7.73L105.61 7.73Q105.14 7.39 104.82 6.84L104.82 6.84L104.82 6.84Q104.49 6.28 104.49 5.48L104.49 5.48L104.49 5.48Q104.49 4.16 105.22 3.41L105.22 3.41L105.22 3.41Q105.95 2.66 107.38 2.66L107.38 2.66L107.38 2.66Q108.08 2.66 108.71 2.91L108.71 2.91L108.71 2.91Q109.33 3.16 109.78 3.73L109.78 3.73L109.78 3.73Q110.23 4.31 110.39 5.22L110.39 5.22L109.08 5.67L109.08 5.67Q108.93 4.87 108.53 4.47L108.53 4.47L108.53 4.47Q108.12 4.07 107.41 4.07L107.41 4.07L107.41 4.07Q106.76 4.07 106.43 4.44L106.43 4.44L106.43 4.44Q106.10 4.82 106.10 5.37L106.10 5.37L106.10 5.37Q106.10 5.78 106.32 6.08L106.32 6.08L106.32 6.08Q106.54 6.39 106.87 6.61L106.87 6.61L106.87 6.61Q107.19 6.84 107.79 7.16L107.79 7.16L108.23 7.41L108.23 7.41Q108.93 7.82 109.41 8.22L109.41 8.22L109.41 8.22Q109.89 8.61 110.23 9.26L110.23 9.26L110.23 9.26Q110.56 9.90 110.56 10.81L110.56 10.81L110.56 10.81Q110.56 11.74 110.20 12.44L110.20 12.44L110.20 12.44Q109.83 13.15 109.14 13.53L109.14 13.53L109.14 13.53Q108.45 13.92 107.50 13.92L107.50 13.92ZM111.97 13.78L111.97 2.80L113.61 2.80L113.61 6.88L113.68 6.88L113.68 6.88Q113.98 6.22 114.48 5.85L114.48 5.85L114.48 5.85Q114.97 5.48 115.65 5.48L115.65 5.48L115.65 5.48Q116.32 5.48 116.83 5.81L116.83 5.81L116.83 5.81Q117.33 6.15 117.61 6.77L117.61 6.77L117.61 6.77Q117.89 7.40 117.89 8.24L117.89 8.24L117.89 13.78L116.23 13.78L116.23 8.46L116.23 8.46Q116.23 7.62 115.94 7.25L115.94 7.25L115.94 7.25Q115.66 6.89 115.10 6.89L115.10 6.89L115.10 6.89Q114.66 6.89 114.33 7.14L114.33 7.14L114.33 7.14Q114.00 7.40 113.81 7.86L113.81 7.86L113.81 7.86Q113.63 8.33 113.63 8.94L113.63 8.94L113.63 13.78L111.97 13.78ZM122.32 13.96L122.32 13.96Q121.33 13.96 120.60 13.50L120.60 13.50L120.60 13.50Q119.88 13.04 119.48 12.10L119.48 12.10L119.48 12.10Q119.08 11.15 119.08 9.73L119.08 9.73L119.08 9.73Q119.08 8.30 119.48 7.35L119.48 7.35L119.48 7.35Q119.88 6.40 120.60 5.94L120.60 5.94L120.60 5.94Q121.32 5.48 122.32 5.48L122.32 5.48L122.32 5.48Q123.31 5.48 124.04 5.94L124.04 5.94L124.04 5.94Q124.76 6.40 125.16 7.35L125.16 7.35L125.16 7.35Q125.56 8.30 125.56 9.73L125.56 9.73L125.56 9.73Q125.56 11.15 125.16 12.10L125.16 12.10L125.16 12.10Q124.76 13.04 124.04 13.50L124.04 13.50L124.04 13.50Q123.31 13.96 122.32 13.96L122.32 13.96ZM122.31 12.63L122.31 12.63Q123.12 12.63 123.54 11.96L123.54 11.96L123.54 11.96Q123.97 11.29 123.97 9.73L123.97 9.73L123.97 9.73Q123.97 8.13 123.55 7.46L123.55 7.46L123.55 7.46Q123.12 6.79 122.31 6.79L122.31 6.79L122.31 6.79Q121.53 6.79 121.11 7.46L121.11 7.46L121.11 7.46Q120.69 8.13 120.69 9.73L120.69 9.73L120.69 9.73Q120.69 11.29 121.11 11.96L121.11 11.96L121.11 11.96Q121.53 12.63 122.31 12.63L122.31 12.63ZM134.17 5.63L135.88 5.63L134.39 13.78L132.25 13.78L131.07 7.74L131.00 7.74L129.83 13.80L127.70 13.80L126.21 5.63L127.93 5.63L128.82 12.41L130.33 5.63L131.75 5.63L133.25 12.43L134.17 5.63Z"></path></g><!----><g data-v-423bf9ae="" id="c320420b-b996-43d7-8c02-c2b63421b772" transform="matrix(1.0224519517686632,0,0,1.0224519517686632,-2.4186639655873776,-3.132033374263564)" stroke="none" fill="black"><path d="M97.27 25.49l-.06-1.1L97 23.3a10.64 10.64 0 0 0-8.88-8.3 7.22 7.22 0 0 0-1-.09H81.5l-6.08.11-11.3.27c-7 .2-13 .45-17.54.75a18.12 18.12 0 0 0-2-4.41 18.29 18.29 0 0 0-3.47-3.73 17.45 17.45 0 0 0-4.5-2.69 17.35 17.35 0 0 0-10.75-.73 17.26 17.26 0 0 0-9.36 6.1 17.45 17.45 0 0 0-3.72 10.75c0 6.06 0 12.11.08 18-2-.18-4.41-.34-8.3-.48a1.8 1.8 0 0 0-1.86 1.73v.13a27.67 27.67 0 0 0 1.1 8.94 26.86 26.86 0 0 0 5 9.38 27.85 27.85 0 0 0 19.37 10 22.42 22.42 0 0 0 0 10.67c-3-.05-6.14-.09-9.28-.11H18a8.21 8.21 0 0 0-1.43.14 7.55 7.55 0 0 0-5.91 5.68 7.21 7.21 0 0 0-.19 1.42v6.49a2.67 2.67 0 0 0 2.7 2.65c7.28-.07 14.23-.33 20.08-.67s10.63-.73 13.83-1.07c.28 0 0-.5-.52-1a3.34 3.34 0 0 0-1.36-.88c-3.6-.34-8.44-.72-13.92-1.07-4.72-.3-9.92-.53-15.4-.63v-3.6a1.79 1.79 0 0 1 .06-.39 2.11 2.11 0 0 1 1.62-1.57h1.31c4.89 0 9.71-.1 14.25-.21l6.55-.2 1.55-.06H41.89a2.89 2.89 0 0 1 .41 0 2.78 2.78 0 0 1 1.46.64 2.93 2.93 0 0 1 .87 1.3 3.48 3.48 0 0 1 .15.8c0 .33.07.64.11 1 .17 1.24.46 2.45.7 3.63a4.74 4.74 0 0 0 1.1 1.49c.49.48.9.62 1 .34.24-1.29.52-2.93.7-4.85l.11-1.47a7.26 7.26 0 0 0-.08-1.72 6.76 6.76 0 0 0-1.67-3.37 6.94 6.94 0 0 0-3.55-2.06 7.2 7.2 0 0 0-1.08-.15h-.85l-1.58-.2-6.55-.2h-.78a22.36 22.36 0 0 0 0-10.75 27.82 27.82 0 0 0 19.15-9.75 27.15 27.15 0 0 0 2.41-3.3c2.68.17 5.94.33 11.09.47 3.42 3.7 7.5 8 12.74 13.42a2.37 2.37 0 0 0 4.07-1.61v-.08L82 57.28h5.48a11.33 11.33 0 0 0 2.1-.39 10.62 10.62 0 0 0 3.8-2 10.73 10.73 0 0 0 3.87-7.62V43.8v-3.33-13.33zm-79-4.17a12.14 12.14 0 0 1 8.95-11.68A11.48 11.48 0 0 1 31 9.22a11.69 11.69 0 0 1 3.7.75 12.68 12.68 0 0 1 3.3 1.8 13.79 13.79 0 0 1 2.52 2.61 13.85 13.85 0 0 1 1.62 3.12 12.66 12.66 0 0 1 .67 3.33c.06.51.06 1.24.08 1.86l.06 1.89.12 3.63c.17 4.69.37 8.76.61 12 0 .46.7.82 1.47.79a1.93 1.93 0 0 0 .7-.17 2.74 2.74 0 0 0 0 .36 1.77 1.77 0 0 0-.94-.19c-.68 0-1.23.33-1.27.7a13.84 13.84 0 0 1-1.45 4.67 13.68 13.68 0 0 1-3.64 4.38 13.15 13.15 0 0 1-5.81 2.56 12.83 12.83 0 0 1-6.83-.76A12.42 12.42 0 0 1 20.29 48a13.19 13.19 0 0 1-1.61-3.42 13.87 13.87 0 0 1-.48-3.87c.05-6.33.08-12.86.08-19.39zM47.68 56a24 24 0 0 1-7.82 5.65 23.07 23.07 0 0 1-9.78 2.05 23.62 23.62 0 0 1-9.72-2.2 24 24 0 0 1-12.3-13.29 26.2 26.2 0 0 1-1.43-5.72c2.77-.12 4.7-.26 6.31-.4a17.76 17.76 0 0 0 .75 4 18 18 0 0 0 2.43 4.81 17 17 0 0 0 17.5 6.7 16.74 16.74 0 0 0 7.48-3.89 16.39 16.39 0 0 0 4.15-6A15.23 15.23 0 0 0 46.32 42h.09c1.91.18 4.21.34 7.44.48a25.78 25.78 0 0 1-1.47 5.8 24 24 0 0 1-4.7 7.72zm44.18-28.86v19.81a5.3 5.3 0 0 1-3.73 4.79 6.08 6.08 0 0 1-1 .21h-1.35l-6.24.07h-.08a2.56 2.56 0 0 0-2.52 2.6l.06 7.92c-3.78-3.61-7-6.6-9.8-9.21l-.1-.09a1.74 1.74 0 0 0-1.22-.46c-4.67.12-7.84.26-10.4.4a26.36 26.36 0 0 0 1.29-3.33 27.63 27.63 0 0 0 1.2-9.16v-.14A1.87 1.87 0 0 0 56 38.76c-4.39.16-7.23.35-9.53.57.21-3.09.39-6.84.54-11.11l.12-3.63.06-1.89c0-.66.06-1.23 0-2a12.63 12.63 0 0 0-.12-1.78c4.48.28 10.28.52 17 .71l23.29.53a5.42 5.42 0 0 1 3.56 2.27 5.32 5.32 0 0 1 .85 2l.08.54v.55z"></path><path d="M83.91 31.48a3.19 3.19 0 0 0 .17-1.48 2.63 2.63 0 0 0-.17-1.24c-5.81-1.87-23.35-1.88-29.17 0a3.25 3.25 0 0 0-.18 1.47 2.72 2.72 0 0 0 .18 1.28c5.82 1.86 23.36 1.84 29.17-.03zM67.25 40a5.49 5.49 0 0 0-.1 1.47 4.56 4.56 0 0 0 .1 1.28c3.34 1.85 13.4 1.83 16.74 0a5.39 5.39 0 0 0 .1-1.44 4.42 4.42 0 0 0-.1-1.24c-3.34-1.89-13.41-1.9-16.74-.07z"></path></g><!----><g data-v-423bf9ae="" id="0957f563-7178-4ae9-84d1-0703f32e4b8b" fill="black" transform="matrix(1.9559727541312986,0,0,1.9559727541312986,116.11078028254681,48.83139596495375)"><path d="M1.15 6.34L0.31 6.15L0.36 5.89L3.05 5.89L3.03 6.11L1.90 6.32L3.86 13.18L5.90 6.18L6.21 6.14L8.15 13.18L10.36 6.36L9.08 6.13L9.12 5.89L11.74 5.89L11.72 6.14L10.91 6.34L8.22 14.49L7.77 14.57L5.94 7.63L3.92 14.49L3.44 14.57L1.15 6.34ZM20.60 6.33L19.41 6.16L19.46 5.89L22.58 5.89L22.53 6.16L21.33 6.32L21.33 13.95L22.65 14.08L22.59 14.40L19.48 14.40L19.52 14.11L20.60 13.90L20.60 6.33ZM30.43 8.09L30.36 5.89L37.42 5.89L37.18 8.16L36.84 8.12L36.72 6.24L34.19 6.24L34.19 13.90L35.40 14.08L35.32 14.40L32.22 14.40L32.26 14.11L33.46 13.90L33.46 6.24L31.02 6.24L30.78 8.15L30.43 8.09ZM46.35 6.33L45.12 6.16L45.14 5.89L48.26 5.89L48.23 6.16L47.07 6.32L47.07 9.95L51.98 9.95L51.98 6.33L50.72 6.16L50.77 5.89L53.88 5.89L53.83 6.16L52.68 6.32L52.68 13.95L53.94 14.08L53.89 14.40L50.79 14.40L50.85 14.11L51.98 13.90L51.98 10.36L47.07 10.36L47.07 13.95L48.34 14.08L48.27 14.40L45.18 14.40L45.21 14.11L46.35 13.90L46.35 6.33ZM71.57 13.60L71.57 13.60L71.77 11.66L72.10 11.71L72.29 13.21L72.29 13.21Q72.52 13.64 73.05 13.89L73.05 13.89L73.05 13.89Q73.58 14.14 74.18 14.14L74.18 14.14L74.18 14.14Q74.86 14.14 75.34 13.74L75.34 13.74L75.34 13.74Q75.82 13.33 75.82 12.61L75.82 12.61L75.82 12.61Q75.82 12.20 75.60 11.83L75.60 11.83L75.60 11.83Q75.39 11.46 75.04 11.18L75.04 11.18L75.04 11.18Q74.70 10.90 74.28 10.63L74.28 10.63L74.28 10.63Q73.86 10.36 73.44 10.07L73.44 10.07L73.44 10.07Q73.02 9.79 72.68 9.48L72.68 9.48L72.68 9.48Q72.33 9.17 72.12 8.75L72.12 8.75L72.12 8.75Q71.90 8.33 71.90 7.84L71.90 7.84L71.90 7.84Q71.90 6.88 72.59 6.29L72.59 6.29L72.59 6.29Q73.29 5.71 74.17 5.71L74.17 5.71L74.17 5.71Q74.76 5.71 75.30 5.90L75.30 5.90L75.30 5.90Q75.84 6.09 76.17 6.46L76.17 6.46L75.94 8.58L75.63 8.53L75.44 6.87L75.44 6.87Q75.26 6.54 74.84 6.32L74.84 6.32L74.84 6.32Q74.42 6.10 73.99 6.10L73.99 6.10L73.99 6.10Q73.40 6.10 72.98 6.48L72.98 6.48L72.98 6.48Q72.57 6.87 72.57 7.52L72.57 7.52L72.57 7.52Q72.57 7.96 72.79 8.35L72.79 8.35L72.79 8.35Q73.01 8.74 73.37 9.03L73.37 9.03L73.37 9.03Q73.72 9.32 74.14 9.61L74.14 9.61L74.14 9.61Q74.57 9.89 74.99 10.17L74.99 10.17L74.99 10.17Q75.42 10.45 75.77 10.75L75.77 10.75L75.77 10.75Q76.13 11.05 76.35 11.45L76.35 11.45L76.35 11.45Q76.57 11.85 76.57 12.29L76.57 12.29L76.57 12.29Q76.57 13.28 75.82 13.93L75.82 13.93L75.82 13.93Q75.07 14.57 73.82 14.57L73.82 14.57L73.82 14.57Q73.11 14.57 72.51 14.30L72.51 14.30L72.51 14.30Q71.91 14.03 71.57 13.60ZM85.51 6.33L84.28 6.16L84.30 5.89L87.42 5.89L87.38 6.16L86.23 6.32L86.23 9.95L91.14 9.95L91.14 6.33L89.88 6.16L89.93 5.89L93.04 5.89L92.98 6.16L91.84 6.32L91.84 13.95L93.09 14.08L93.04 14.40L89.95 14.40L90.00 14.11L91.14 13.90L91.14 10.36L86.23 10.36L86.23 13.95L87.50 14.08L87.42 14.40L84.33 14.40L84.37 14.11L85.51 13.90L85.51 6.33ZM101.96 6.33L100.78 6.16L100.82 5.89L103.95 5.89L103.90 6.16L102.70 6.32L102.70 13.95L104.02 14.08L103.96 14.40L100.85 14.40L100.88 14.11L101.96 13.90L101.96 6.33ZM112.72 6.34L111.71 6.14L111.74 5.89L114.64 5.89L114.61 6.14L113.46 6.32L115.83 13.30L118.41 6.34L117.13 6.14L117.15 5.89L119.82 5.89L119.79 6.14L118.91 6.32L115.90 14.47L115.55 14.57L112.72 6.34ZM131.58 6.98L130.21 10.75L132.90 10.75L131.58 6.98ZM130.26 14.40L127.53 14.40L127.57 14.11L128.54 13.90L131.53 5.82L131.89 5.73L134.73 13.95L135.63 14.08L135.58 14.39L132.78 14.39L132.84 14.10L133.98 13.90L133.03 11.13L130.07 11.13L129.06 13.95L130.32 14.08L130.26 14.40ZM146.13 14.40L143.29 14.40L143.33 14.17L144.47 13.96L145.04 6.36L143.78 6.14L143.83 5.89L146.01 5.89L146.49 7.18L148.64 12.84L151.09 6.88L151.50 5.89L153.73 5.89L153.70 6.14L152.52 6.34L152.90 14.01L154.13 14.12L154.12 14.40L150.96 14.40L151.00 14.17L152.17 13.96L151.78 6.41L148.60 13.99L148.26 14.05L145.47 6.53L144.93 14.01L146.17 14.12L146.13 14.40ZM171.75 13.60L171.75 13.60L171.95 11.66L172.28 11.71L172.47 13.21L172.47 13.21Q172.70 13.64 173.23 13.89L173.23 13.89L173.23 13.89Q173.76 14.14 174.36 14.14L174.36 14.14L174.36 14.14Q175.04 14.14 175.52 13.74L175.52 13.74L175.52 13.74Q176.00 13.33 176.00 12.61L176.00 12.61L176.00 12.61Q176.00 12.20 175.78 11.83L175.78 11.83L175.78 11.83Q175.57 11.46 175.22 11.18L175.22 11.18L175.22 11.18Q174.88 10.90 174.46 10.63L174.46 10.63L174.46 10.63Q174.04 10.36 173.62 10.07L173.62 10.07L173.62 10.07Q173.20 9.79 172.86 9.48L172.86 9.48L172.86 9.48Q172.51 9.17 172.30 8.75L172.30 8.75L172.30 8.75Q172.08 8.33 172.08 7.84L172.08 7.84L172.08 7.84Q172.08 6.88 172.77 6.29L172.77 6.29L172.77 6.29Q173.47 5.71 174.35 5.71L174.35 5.71L174.35 5.71Q174.94 5.71 175.48 5.90L175.48 5.90L175.48 5.90Q176.02 6.09 176.35 6.46L176.35 6.46L176.12 8.58L175.81 8.53L175.62 6.87L175.62 6.87Q175.44 6.54 175.02 6.32L175.02 6.32L175.02 6.32Q174.60 6.10 174.17 6.10L174.17 6.10L174.17 6.10Q173.58 6.10 173.16 6.48L173.16 6.48L173.16 6.48Q172.75 6.87 172.75 7.52L172.75 7.52L172.75 7.52Q172.75 7.96 172.97 8.35L172.97 8.35L172.97 8.35Q173.20 8.74 173.55 9.03L173.55 9.03L173.55 9.03Q173.90 9.32 174.32 9.61L174.32 9.61L174.32 9.61Q174.75 9.89 175.17 10.17L175.17 10.17L175.17 10.17Q175.60 10.45 175.95 10.75L175.95 10.75L175.95 10.75Q176.31 11.05 176.53 11.45L176.53 11.45L176.53 11.45Q176.75 11.85 176.75 12.29L176.75 12.29L176.75 12.29Q176.75 13.28 176.00 13.93L176.00 13.93L176.00 13.93Q175.25 14.57 174.00 14.57L174.00 14.57L174.00 14.57Q173.29 14.57 172.69 14.30L172.69 14.30L172.69 14.30Q172.09 14.03 171.75 13.60ZM185.63 6.33L184.45 6.16L184.49 5.89L187.61 5.89L187.56 6.16L186.37 6.32L186.37 13.95L187.69 14.08L187.63 14.40L184.52 14.40L184.55 14.11L185.63 13.90L185.63 6.33ZM196.64 6.36L195.38 6.14L195.43 5.89L197.50 5.89L202.23 13.17L202.23 6.33L200.98 6.16L201.02 5.89L203.92 5.89L203.86 6.16L202.73 6.32L202.73 14.44L202.36 14.52L197.15 6.65L197.15 13.95L198.41 14.08L198.34 14.40L195.46 14.40L195.50 14.11L196.64 13.90L196.64 6.36ZM211.63 10.27L211.63 10.27L211.63 10.27Q211.63 9.64 211.80 9.00L211.80 9.00L211.80 9.00Q211.97 8.36 212.32 7.78L212.32 7.78L212.32 7.78Q212.67 7.21 213.14 6.75L213.14 6.75L213.14 6.75Q213.62 6.30 214.29 6.04L214.29 6.04L214.29 6.04Q214.96 5.77 215.71 5.77L215.71 5.77L215.71 5.77Q216.45 5.77 217.16 5.94L217.16 5.94L217.16 5.94Q217.86 6.11 218.33 6.47L218.33 6.47L218.13 8.64L217.82 8.61L217.61 6.99L217.61 6.99Q217.34 6.65 216.79 6.41L216.79 6.41L216.79 6.41Q216.25 6.17 215.49 6.17L215.49 6.17L215.49 6.17Q214.08 6.17 213.24 7.27L213.24 7.27L213.24 7.27Q212.41 8.37 212.41 10.07L212.41 10.07L212.41 10.07Q212.41 10.69 212.52 11.25L212.52 11.25L212.52 11.25Q212.63 11.81 212.88 12.34L212.88 12.34L212.88 12.34Q213.13 12.87 213.51 13.25L213.51 13.25L213.51 13.25Q213.89 13.63 214.48 13.86L214.48 13.86L214.48 13.86Q215.07 14.09 215.80 14.09L215.80 14.09L215.80 14.09Q216.86 14.09 217.57 13.59L217.57 13.59L217.59 11.03L215.94 10.86L215.98 10.60L219.26 10.60L219.21 10.86L218.30 11.01L218.30 13.86L218.30 13.86Q217.65 14.25 216.91 14.39L216.91 14.39L216.91 14.39Q216.17 14.53 215.09 14.53L215.09 14.53L215.09 14.53Q214.38 14.53 213.75 14.23L213.75 14.23L213.75 14.23Q213.12 13.93 212.65 13.39L212.65 13.39L212.65 13.39Q212.18 12.85 211.90 12.04L211.90 12.04L211.90 12.04Q211.63 11.23 211.63 10.27ZM228.16 6.33L226.93 6.16L226.95 5.89L230.06 5.89L230.03 6.16L228.87 6.32L228.87 9.95L233.78 9.95L233.78 6.33L232.52 6.16L232.57 5.89L235.68 5.89L235.63 6.16L234.49 6.32L234.49 13.95L235.74 14.08L235.69 14.40L232.59 14.40L232.65 14.11L233.78 13.90L233.78 10.36L228.87 10.36L228.87 13.95L230.15 14.08L230.07 14.40L226.98 14.40L227.01 14.11L228.16 13.90L228.16 6.33Z"></path></g></svg>