<?xml version="1.0" encoding="UTF-8"?>
<svg xmlns="http://www.w3.org/2000/svg" xmlns:xlink="http://www.w3.org/1999/xlink" width="150pt" height="150pt" viewBox="0 0 150 150" version="1.1">
<g id="surface1">
<rect x="0" y="0" width="150" height="150" style="fill:rgb(100%,100%,100%);fill-opacity:1;stroke:none;"/>
<path style=" stroke:none;fill-rule:nonzero;fill:rgb(0%,0%,0%);fill-opacity:1;" d="M 46.765625 72.542969 L 46.765625 66.621094 L 45.273438 66.621094 L 45.273438 65.691406 L 49.324219 65.691406 L 49.324219 66.621094 L 47.832031 66.621094 L 47.832031 72.542969 Z M 49.984375 72.542969 L 49.984375 65.691406 L 51 65.691406 L 51 68.238281 L 51.050781 68.238281 C 51.175781 67.960938 51.339844 67.746094 51.542969 67.59375 C 51.753906 67.441406 51.996094 67.363281 52.273438 67.363281 C 52.554688 67.363281 52.800781 67.433594 53.011719 67.570312 C 53.222656 67.710938 53.386719 67.910156 53.5 68.167969 C 53.613281 68.429688 53.671875 68.734375 53.671875 69.085938 L 53.671875 72.542969 L 52.644531 72.542969 L 52.644531 69.222656 C 52.644531 68.875 52.582031 68.621094 52.460938 68.46875 C 52.339844 68.316406 52.164062 68.242188 51.933594 68.242188 C 51.75 68.242188 51.589844 68.296875 51.453125 68.398438 C 51.3125 68.507812 51.207031 68.65625 51.132812 68.847656 C 51.058594 69.042969 51.019531 69.269531 51.019531 69.523438 L 51.019531 72.542969 Z M 58.242188 69.835938 C 58.242188 70.054688 58.234375 70.210938 58.21875 70.300781 L 55.421875 70.300781 C 55.425781 70.582031 55.472656 70.832031 55.558594 71.058594 C 55.644531 71.28125 55.773438 71.460938 55.9375 71.59375 C 56.105469 71.722656 56.304688 71.789062 56.539062 71.789062 C 56.917969 71.789062 57.222656 71.621094 57.457031 71.289062 L 58.15625 71.664062 C 57.96875 72.019531 57.734375 72.273438 57.457031 72.425781 C 57.175781 72.574219 56.859375 72.648438 56.5 72.648438 C 56.066406 72.648438 55.695312 72.535156 55.378906 72.304688 C 55.0625 72.082031 54.820312 71.769531 54.652344 71.371094 C 54.492188 70.976562 54.410156 70.523438 54.410156 70.015625 C 54.410156 69.507812 54.476562 69.054688 54.609375 68.660156 C 54.742188 68.261719 54.957031 67.945312 55.253906 67.710938 C 55.542969 67.480469 55.917969 67.363281 56.375 67.363281 C 57.054688 67.363281 57.535156 67.59375 57.816406 68.050781 C 58.101562 68.511719 58.242188 69.105469 58.242188 69.835938 Z M 56.402344 68.1875 C 56.058594 68.1875 55.8125 68.316406 55.664062 68.574219 C 55.519531 68.835938 55.441406 69.171875 55.425781 69.585938 L 57.355469 69.585938 C 57.347656 69.28125 57.316406 69.03125 57.261719 68.828125 C 57.203125 68.628906 57.105469 68.472656 56.96875 68.363281 C 56.832031 68.246094 56.640625 68.1875 56.402344 68.1875 Z M 64.285156 72.542969 L 63.964844 71.132812 L 61.925781 71.132812 L 61.601562 72.542969 L 60.5 72.542969 L 62.242188 65.691406 L 63.640625 65.691406 L 65.382812 72.542969 Z M 62.125 70.257812 L 63.765625 70.257812 L 63.046875 67.058594 L 62.972656 66.515625 L 62.941406 66.515625 L 62.855469 67.058594 Z M 66.230469 72.542969 L 66.230469 68.179688 L 65.558594 68.179688 L 65.558594 67.457031 L 66.242188 67.457031 L 66.242188 67.132812 C 66.242188 66.691406 66.351562 66.339844 66.5625 66.082031 C 66.773438 65.820312 67.078125 65.691406 67.472656 65.691406 L 68.171875 65.691406 L 68.171875 66.4375 L 67.753906 66.4375 C 67.589844 66.4375 67.464844 66.5 67.375 66.621094 C 67.285156 66.738281 67.242188 66.898438 67.242188 67.101562 L 67.242188 67.457031 L 68.171875 67.457031 L 68.171875 68.179688 L 67.273438 68.179688 L 67.273438 72.542969 Z M 70 72.542969 C 69.578125 72.542969 69.269531 72.429688 69.082031 72.199219 C 68.898438 71.972656 68.808594 71.609375 68.808594 71.113281 L 68.808594 68.179688 L 68.226562 68.179688 L 68.226562 67.457031 L 68.863281 67.457031 L 69.058594 66.289062 L 69.832031 66.289062 L 69.832031 67.457031 L 70.832031 67.457031 L 70.832031 68.179688 L 69.832031 68.179688 L 69.832031 70.875 C 69.832031 71.097656 69.851562 71.269531 69.886719 71.390625 C 69.925781 71.507812 69.984375 71.59375 70.070312 71.644531 C 70.152344 71.695312 70.273438 71.71875 70.429688 71.71875 L 70.773438 71.71875 L 70.773438 72.542969 Z M 75.070312 69.835938 C 75.070312 70.054688 75.058594 70.210938 75.039062 70.300781 L 72.242188 70.300781 C 72.246094 70.582031 72.292969 70.832031 72.386719 71.058594 C 72.472656 71.28125 72.597656 71.460938 72.765625 71.59375 C 72.933594 71.722656 73.128906 71.789062 73.359375 71.789062 C 73.742188 71.789062 74.050781 71.621094 74.28125 71.289062 L 74.976562 71.664062 C 74.789062 72.019531 74.554688 72.273438 74.277344 72.425781 C 73.996094 72.574219 73.679688 72.648438 73.320312 72.648438 C 72.886719 72.648438 72.515625 72.535156 72.199219 72.304688 C 71.882812 72.082031 71.640625 71.769531 71.480469 71.371094 C 71.3125 70.976562 71.230469 70.523438 71.230469 70.015625 C 71.230469 69.507812 71.296875 69.054688 71.429688 68.660156 C 71.5625 68.261719 71.777344 67.945312 72.074219 67.710938 C 72.367188 67.480469 72.746094 67.363281 73.203125 67.363281 C 73.875 67.363281 74.359375 67.59375 74.644531 68.050781 C 74.925781 68.511719 75.070312 69.105469 75.070312 69.835938 Z M 73.222656 68.1875 C 72.878906 68.1875 72.636719 68.316406 72.492188 68.574219 C 72.339844 68.835938 72.261719 69.171875 72.246094 69.585938 L 74.175781 69.585938 C 74.167969 69.28125 74.136719 69.03125 74.082031 68.828125 C 74.027344 68.628906 73.929688 68.472656 73.789062 68.363281 C 73.652344 68.246094 73.460938 68.1875 73.222656 68.1875 Z M 75.886719 72.542969 L 75.886719 67.457031 L 76.816406 67.457031 L 76.859375 68.261719 L 76.890625 68.261719 C 76.988281 67.988281 77.121094 67.773438 77.296875 67.617188 C 77.472656 67.460938 77.660156 67.382812 77.863281 67.382812 C 78.078125 67.382812 78.234375 67.410156 78.339844 67.46875 L 78.339844 68.4375 C 78.160156 68.386719 78.011719 68.367188 77.894531 68.375 C 77.589844 68.394531 77.351562 68.535156 77.183594 68.796875 C 77.015625 69.0625 76.929688 69.441406 76.929688 69.941406 L 76.929688 72.542969 Z M 83.078125 72.644531 C 82.527344 72.644531 82.066406 72.492188 81.691406 72.195312 C 81.316406 71.898438 81.039062 71.488281 80.855469 70.957031 C 80.671875 70.429688 80.582031 69.816406 80.582031 69.117188 C 80.582031 68.421875 80.671875 67.808594 80.855469 67.277344 C 81.039062 66.746094 81.316406 66.332031 81.683594 66.035156 C 82.058594 65.734375 82.523438 65.585938 83.078125 65.585938 C 83.441406 65.585938 83.777344 65.660156 84.082031 65.816406 C 84.390625 65.964844 84.648438 66.183594 84.855469 66.46875 C 85.066406 66.757812 85.21875 67.101562 85.304688 67.507812 L 84.398438 67.800781 C 84.3125 67.402344 84.160156 67.089844 83.9375 66.863281 C 83.71875 66.640625 83.4375 66.527344 83.09375 66.527344 C 82.785156 66.527344 82.515625 66.628906 82.296875 66.839844 C 82.082031 67.042969 81.914062 67.335938 81.804688 67.71875 C 81.691406 68.101562 81.636719 68.554688 81.636719 69.074219 C 81.636719 69.609375 81.691406 70.074219 81.808594 70.472656 C 81.921875 70.863281 82.089844 71.167969 82.308594 71.382812 C 82.527344 71.59375 82.789062 71.699219 83.101562 71.699219 C 83.417969 71.699219 83.6875 71.585938 83.914062 71.351562 C 84.136719 71.117188 84.300781 70.804688 84.398438 70.410156 L 85.316406 70.714844 C 85.226562 71.113281 85.074219 71.460938 84.863281 71.75 C 84.648438 72.039062 84.390625 72.257812 84.085938 72.414062 C 83.78125 72.566406 83.441406 72.644531 83.078125 72.644531 Z M 87.800781 72.65625 C 87.390625 72.65625 87.03125 72.558594 86.726562 72.367188 C 86.425781 72.175781 86.1875 71.886719 86.023438 71.496094 C 85.855469 71.097656 85.773438 70.605469 85.773438 70.015625 C 85.773438 69.421875 85.855469 68.925781 86.023438 68.53125 C 86.1875 68.136719 86.425781 67.839844 86.726562 67.648438 C 87.027344 67.457031 87.386719 67.363281 87.800781 67.363281 C 88.214844 67.363281 88.570312 67.457031 88.875 67.648438 C 89.175781 67.839844 89.40625 68.136719 89.574219 68.53125 C 89.742188 68.925781 89.824219 69.421875 89.824219 70.015625 C 89.824219 70.605469 89.742188 71.097656 89.574219 71.496094 C 89.40625 71.886719 89.175781 72.175781 88.875 72.367188 C 88.570312 72.558594 88.214844 72.65625 87.800781 72.65625 Z M 87.796875 71.824219 C 88.128906 71.824219 88.382812 71.6875 88.5625 71.40625 C 88.742188 71.128906 88.832031 70.664062 88.832031 70.015625 C 88.832031 69.351562 88.742188 68.878906 88.5625 68.597656 C 88.386719 68.320312 88.132812 68.179688 87.796875 68.179688 C 87.472656 68.179688 87.222656 68.320312 87.046875 68.597656 C 86.871094 68.878906 86.785156 69.351562 86.785156 70.015625 C 86.785156 70.664062 86.871094 71.128906 87.046875 71.40625 C 87.222656 71.6875 87.472656 71.824219 87.796875 71.824219 Z M 90.667969 72.542969 L 90.667969 65.691406 L 91.703125 65.691406 L 91.703125 72.542969 Z M 92.863281 72.542969 L 92.863281 65.691406 L 93.898438 65.691406 L 93.898438 72.542969 Z M 98.566406 69.835938 C 98.566406 70.054688 98.558594 70.210938 98.542969 70.300781 L 95.742188 70.300781 C 95.75 70.582031 95.796875 70.832031 95.882812 71.058594 C 95.972656 71.28125 96.097656 71.460938 96.265625 71.59375 C 96.429688 71.722656 96.628906 71.789062 96.859375 71.789062 C 97.242188 71.789062 97.546875 71.621094 97.78125 71.289062 L 98.472656 71.664062 C 98.289062 72.019531 98.054688 72.273438 97.773438 72.425781 C 97.496094 72.574219 97.179688 72.648438 96.820312 72.648438 C 96.386719 72.648438 96.011719 72.535156 95.695312 72.304688 C 95.386719 72.082031 95.144531 71.769531 94.980469 71.371094 C 94.8125 70.976562 94.730469 70.523438 94.730469 70.015625 C 94.730469 69.507812 94.796875 69.054688 94.929688 68.660156 C 95.0625 68.261719 95.277344 67.945312 95.570312 67.710938 C 95.867188 67.480469 96.242188 67.363281 96.703125 67.363281 C 97.378906 67.363281 97.859375 67.59375 98.144531 68.050781 C 98.425781 68.511719 98.566406 69.105469 98.566406 69.835938 Z M 96.71875 68.1875 C 96.378906 68.1875 96.136719 68.316406 95.992188 68.574219 C 95.839844 68.835938 95.761719 69.171875 95.753906 69.585938 L 97.683594 69.585938 C 97.671875 69.28125 97.640625 69.03125 97.582031 68.828125 C 97.527344 68.628906 97.433594 68.472656 97.292969 68.363281 C 97.15625 68.246094 96.964844 68.1875 96.71875 68.1875 Z M 102.195312 67.457031 L 103.136719 67.457031 L 103.136719 72.1875 C 103.136719 72.710938 103.046875 73.140625 102.863281 73.472656 C 102.679688 73.800781 102.429688 74.042969 102.121094 74.191406 C 101.8125 74.339844 101.460938 74.414062 101.066406 74.414062 C 100.832031 74.414062 100.59375 74.378906 100.351562 74.308594 C 100.117188 74.242188 99.894531 74.136719 99.683594 73.992188 C 99.480469 73.839844 99.3125 73.65625 99.179688 73.4375 L 99.742188 72.875 C 99.902344 73.140625 100.101562 73.328125 100.335938 73.441406 C 100.566406 73.554688 100.804688 73.609375 101.046875 73.609375 C 101.371094 73.609375 101.628906 73.5 101.824219 73.273438 C 102.023438 73.042969 102.121094 72.691406 102.121094 72.21875 L 102.121094 71.664062 C 101.980469 71.90625 101.808594 72.097656 101.601562 72.238281 C 101.398438 72.375 101.136719 72.445312 100.820312 72.445312 C 100.453125 72.445312 100.140625 72.335938 99.878906 72.117188 C 99.613281 71.898438 99.410156 71.59375 99.273438 71.207031 C 99.132812 70.820312 99.0625 70.378906 99.0625 69.882812 C 99.0625 69.398438 99.132812 68.964844 99.273438 68.585938 C 99.414062 68.203125 99.621094 67.902344 99.890625 67.6875 C 100.160156 67.472656 100.484375 67.363281 100.863281 67.363281 C 101.140625 67.363281 101.386719 67.421875 101.601562 67.542969 C 101.820312 67.664062 101.988281 67.84375 102.101562 68.082031 L 102.164062 68.082031 Z M 101.175781 71.605469 C 101.53125 71.605469 101.792969 71.460938 101.964844 71.164062 C 102.132812 70.871094 102.21875 70.476562 102.21875 69.972656 C 102.21875 69.460938 102.132812 69.039062 101.957031 68.710938 C 101.78125 68.378906 101.515625 68.210938 101.152344 68.210938 C 100.800781 68.210938 100.539062 68.367188 100.367188 68.679688 C 100.195312 68.992188 100.109375 69.402344 100.109375 69.910156 C 100.109375 70.417969 100.195312 70.828125 100.371094 71.140625 C 100.546875 71.449219 100.816406 71.605469 101.175781 71.605469 Z M 107.800781 69.835938 C 107.800781 70.054688 107.789062 70.210938 107.773438 70.300781 L 104.976562 70.300781 C 104.980469 70.582031 105.027344 70.832031 105.117188 71.058594 C 105.203125 71.28125 105.328125 71.460938 105.496094 71.59375 C 105.664062 71.722656 105.863281 71.789062 106.09375 71.789062 C 106.472656 71.789062 106.78125 71.621094 107.011719 71.289062 L 107.710938 71.664062 C 107.523438 72.019531 107.292969 72.273438 107.011719 72.425781 C 106.734375 72.574219 106.414062 72.648438 106.050781 72.648438 C 105.621094 72.648438 105.25 72.535156 104.933594 72.304688 C 104.617188 72.082031 104.375 71.769531 104.210938 71.371094 C 104.046875 70.976562 103.96875 70.523438 103.96875 70.015625 C 103.96875 69.507812 104.035156 69.054688 104.167969 68.660156 C 104.300781 68.261719 104.515625 67.945312 104.808594 67.710938 C 105.101562 67.480469 105.476562 67.363281 105.933594 67.363281 C 106.609375 67.363281 107.089844 67.59375 107.375 68.050781 C 107.65625 68.511719 107.800781 69.105469 107.800781 69.835938 Z M 105.957031 68.1875 C 105.617188 68.1875 105.371094 68.316406 105.222656 68.574219 C 105.074219 68.835938 104.996094 69.171875 104.984375 69.585938 L 106.914062 69.585938 C 106.90625 69.28125 106.871094 69.03125 106.8125 68.828125 C 106.757812 68.628906 106.664062 68.472656 106.527344 68.363281 C 106.386719 68.246094 106.199219 68.1875 105.957031 68.1875 Z M 112.285156 72.628906 C 111.953125 72.628906 111.640625 72.570312 111.351562 72.449219 C 111.058594 72.328125 110.804688 72.128906 110.589844 71.84375 C 110.375 71.5625 110.230469 71.1875 110.152344 70.726562 L 111.050781 70.414062 C 111.128906 70.859375 111.28125 71.1875 111.5 71.402344 C 111.722656 71.613281 111.984375 71.71875 112.285156 71.71875 C 112.566406 71.71875 112.777344 71.636719 112.921875 71.46875 C 113.074219 71.304688 113.148438 71.058594 113.148438 70.734375 C 113.148438 70.492188 113.097656 70.289062 113 70.121094 C 112.898438 69.949219 112.769531 69.808594 112.609375 69.691406 C 112.453125 69.578125 112.234375 69.445312 111.957031 69.292969 L 111.855469 69.234375 C 111.546875 69.066406 111.296875 68.910156 111.105469 68.765625 C 110.910156 68.625 110.746094 68.441406 110.613281 68.210938 C 110.476562 67.980469 110.40625 67.695312 110.40625 67.363281 C 110.40625 66.8125 110.558594 66.382812 110.863281 66.070312 C 111.167969 65.757812 111.617188 65.601562 112.210938 65.601562 C 112.503906 65.601562 112.78125 65.65625 113.042969 65.757812 C 113.300781 65.863281 113.523438 66.035156 113.710938 66.269531 C 113.898438 66.511719 114.023438 66.820312 114.089844 67.199219 L 113.273438 67.480469 C 113.210938 67.148438 113.097656 66.898438 112.929688 66.734375 C 112.757812 66.566406 112.527344 66.484375 112.230469 66.484375 C 111.960938 66.484375 111.757812 66.558594 111.617188 66.714844 C 111.480469 66.871094 111.414062 67.066406 111.414062 67.292969 C 111.414062 67.464844 111.457031 67.613281 111.550781 67.738281 C 111.640625 67.867188 111.757812 67.976562 111.894531 68.066406 C 112.027344 68.164062 112.21875 68.277344 112.46875 68.410156 L 112.742188 68.566406 C 113.035156 68.738281 113.277344 68.90625 113.480469 69.074219 C 113.679688 69.234375 113.847656 69.453125 113.992188 69.722656 C 114.128906 69.988281 114.195312 70.3125 114.195312 70.691406 C 114.195312 71.078125 114.121094 71.414062 113.972656 71.707031 C 113.816406 72.003906 113.597656 72.230469 113.308594 72.386719 C 113.023438 72.550781 112.683594 72.628906 112.285156 72.628906 Z M 115.078125 72.542969 L 115.078125 65.691406 L 116.101562 65.691406 L 116.101562 68.238281 L 116.144531 68.238281 C 116.269531 67.960938 116.433594 67.746094 116.644531 67.59375 C 116.847656 67.441406 117.089844 67.363281 117.375 67.363281 C 117.652344 67.363281 117.898438 67.433594 118.109375 67.570312 C 118.316406 67.710938 118.480469 67.910156 118.597656 68.167969 C 118.714844 68.429688 118.773438 68.734375 118.773438 69.085938 L 118.773438 72.542969 L 117.734375 72.542969 L 117.734375 69.222656 C 117.734375 68.875 117.675781 68.621094 117.554688 68.46875 C 117.4375 68.316406 117.261719 68.242188 117.03125 68.242188 C 116.847656 68.242188 116.6875 68.296875 116.550781 68.398438 C 116.414062 68.507812 116.304688 68.65625 116.226562 68.847656 C 116.148438 69.042969 116.113281 69.269531 116.113281 69.523438 L 116.113281 72.542969 Z M 121.535156 72.65625 C 121.125 72.65625 120.765625 72.558594 120.464844 72.367188 C 120.164062 72.175781 119.929688 71.886719 119.765625 71.496094 C 119.597656 71.097656 119.515625 70.605469 119.515625 70.015625 C 119.515625 69.421875 119.597656 68.925781 119.765625 68.53125 C 119.929688 68.136719 120.164062 67.839844 120.464844 67.648438 C 120.761719 67.457031 121.121094 67.363281 121.535156 67.363281 C 121.949219 67.363281 122.304688 67.457031 122.609375 67.648438 C 122.910156 67.839844 123.144531 68.136719 123.308594 68.53125 C 123.476562 68.925781 123.558594 69.421875 123.558594 70.015625 C 123.558594 70.605469 123.476562 71.097656 123.308594 71.496094 C 123.144531 71.886719 122.910156 72.175781 122.609375 72.367188 C 122.304688 72.558594 121.949219 72.65625 121.535156 72.65625 Z M 121.53125 71.824219 C 121.867188 71.824219 122.125 71.6875 122.296875 71.40625 C 122.476562 71.128906 122.566406 70.664062 122.566406 70.015625 C 122.566406 69.351562 122.480469 68.878906 122.304688 68.597656 C 122.125 68.320312 121.867188 68.179688 121.53125 68.179688 C 121.207031 68.179688 120.957031 68.320312 120.78125 68.597656 C 120.605469 68.878906 120.519531 69.351562 120.519531 70.015625 C 120.519531 70.664062 120.605469 71.128906 120.78125 71.40625 C 120.957031 71.6875 121.207031 71.824219 121.53125 71.824219 Z M 128.933594 67.457031 L 130 67.457031 L 129.070312 72.542969 L 127.734375 72.542969 L 126.996094 68.773438 L 126.953125 68.773438 L 126.222656 72.554688 L 124.894531 72.554688 L 123.964844 67.457031 L 125.039062 67.457031 L 125.59375 71.6875 L 126.535156 67.457031 L 127.421875 67.457031 L 128.359375 71.699219 Z M 128.933594 67.457031 "/>
<path style=" stroke:none;fill-rule:nonzero;fill:rgb(0.392157%,0%,20%);fill-opacity:1;" d="M 38.773438 70.144531 L 38.761719 69.925781 L 38.71875 69.710938 C 38.535156 68.847656 37.832031 68.1875 36.957031 68.0625 C 36.890625 68.050781 36.824219 68.046875 36.757812 68.042969 L 35.644531 68.042969 L 34.4375 68.066406 L 32.195312 68.121094 C 30.804688 68.160156 29.613281 68.210938 28.710938 68.269531 C 28.621094 67.960938 28.488281 67.667969 28.316406 67.394531 C 28.121094 67.117188 27.890625 66.867188 27.628906 66.652344 C 27.359375 66.429688 27.058594 66.25 26.734375 66.121094 C 26.054688 65.847656 25.308594 65.796875 24.601562 65.972656 C 23.863281 66.160156 23.210938 66.585938 22.742188 67.183594 C 22.265625 67.792969 22.007812 68.542969 22.003906 69.316406 C 22.003906 70.519531 22.003906 71.722656 22.019531 72.890625 C 21.625 72.855469 21.144531 72.824219 20.375 72.796875 C 20.175781 72.789062 20.011719 72.941406 20.003906 73.136719 L 20.003906 73.164062 C 19.980469 73.765625 20.054688 74.363281 20.222656 74.9375 C 20.425781 75.617188 20.765625 76.25 21.214844 76.800781 C 22.171875 77.957031 23.5625 78.671875 25.058594 78.785156 C 24.890625 79.480469 24.890625 80.207031 25.058594 80.902344 C 24.464844 80.890625 23.839844 80.882812 23.21875 80.878906 L 23.039062 80.878906 C 22.945312 80.882812 22.851562 80.890625 22.757812 80.90625 C 22.179688 81.019531 21.71875 81.460938 21.585938 82.035156 C 21.5625 82.128906 21.550781 82.222656 21.546875 82.316406 L 21.546875 83.605469 C 21.546875 83.746094 21.605469 83.878906 21.707031 83.980469 C 21.804688 84.078125 21.941406 84.132812 22.082031 84.128906 C 23.527344 84.117188 24.90625 84.066406 26.066406 83.996094 C 27.226562 83.929688 28.175781 83.851562 28.8125 83.785156 C 28.867188 83.785156 28.8125 83.6875 28.707031 83.585938 C 28.632812 83.507812 28.542969 83.449219 28.4375 83.414062 C 27.722656 83.34375 26.765625 83.269531 25.675781 83.199219 C 24.738281 83.140625 23.707031 83.09375 22.621094 83.074219 L 22.621094 82.359375 C 22.621094 82.335938 22.625 82.308594 22.632812 82.285156 C 22.671875 82.125 22.796875 82.003906 22.953125 81.972656 L 23.214844 81.972656 C 24.183594 81.972656 25.140625 81.953125 26.042969 81.929688 L 27.339844 81.890625 L 27.648438 81.878906 L 27.78125 81.878906 C 27.808594 81.875 27.835938 81.875 27.863281 81.878906 C 27.96875 81.890625 28.070312 81.9375 28.152344 82.003906 C 28.234375 82.074219 28.292969 82.164062 28.324219 82.261719 C 28.34375 82.316406 28.351562 82.367188 28.355469 82.421875 C 28.355469 82.488281 28.371094 82.550781 28.378906 82.621094 C 28.410156 82.867188 28.46875 83.105469 28.515625 83.339844 C 28.570312 83.453125 28.644531 83.554688 28.734375 83.636719 C 28.832031 83.730469 28.914062 83.757812 28.933594 83.703125 C 28.980469 83.449219 29.035156 83.121094 29.070312 82.742188 L 29.09375 82.449219 C 29.101562 82.335938 29.097656 82.222656 29.078125 82.109375 C 29.03125 81.859375 28.917969 81.625 28.746094 81.441406 C 28.558594 81.234375 28.3125 81.09375 28.042969 81.03125 C 27.972656 81.015625 27.898438 81.003906 27.828125 81 L 27.660156 81 L 27.34375 80.960938 L 26.046875 80.921875 L 25.890625 80.921875 C 26.0625 80.222656 26.0625 79.488281 25.890625 78.789062 C 27.367188 78.679688 28.734375 77.980469 29.691406 76.855469 C 29.867188 76.648438 30.027344 76.429688 30.167969 76.199219 C 30.703125 76.234375 31.347656 76.265625 32.371094 76.292969 C 33.050781 77.027344 33.859375 77.878906 34.898438 78.957031 C 35.03125 79.089844 35.230469 79.136719 35.410156 79.066406 C 35.585938 78.996094 35.703125 78.824219 35.707031 78.636719 L 35.707031 78.621094 L 35.742188 76.453125 L 36.828125 76.453125 C 36.96875 76.441406 37.109375 76.414062 37.246094 76.375 C 37.523438 76.296875 37.777344 76.160156 38 75.976562 C 38.453125 75.601562 38.734375 75.054688 38.769531 74.464844 L 38.769531 70.472656 Z M 23.09375 69.316406 C 23.097656 68.230469 23.824219 67.285156 24.871094 67 C 25.113281 66.929688 25.367188 66.902344 25.621094 66.914062 C 25.871094 66.925781 26.121094 66.976562 26.355469 67.0625 C 26.589844 67.148438 26.8125 67.269531 27.011719 67.421875 C 27.199219 67.570312 27.367188 67.746094 27.511719 67.9375 C 27.644531 68.132812 27.75 68.339844 27.832031 68.558594 C 27.90625 68.773438 27.949219 68.992188 27.964844 69.21875 C 27.976562 69.320312 27.976562 69.464844 27.980469 69.589844 L 27.992188 69.964844 L 28.015625 70.683594 C 28.050781 71.613281 28.089844 72.421875 28.136719 73.066406 C 28.136719 73.15625 28.277344 73.226562 28.429688 73.222656 C 28.476562 73.21875 28.523438 73.207031 28.566406 73.1875 C 28.566406 73.210938 28.566406 73.234375 28.566406 73.257812 C 28.511719 73.230469 28.445312 73.21875 28.382812 73.222656 C 28.246094 73.222656 28.136719 73.289062 28.128906 73.359375 C 28.089844 73.683594 27.992188 74 27.839844 74.289062 C 27.664062 74.625 27.417969 74.921875 27.117188 75.15625 C 26.78125 75.417969 26.386719 75.59375 25.964844 75.664062 C 25.507812 75.738281 25.039062 75.6875 24.609375 75.515625 C 24.15625 75.332031 23.769531 75.015625 23.496094 74.609375 C 23.355469 74.402344 23.25 74.171875 23.175781 73.933594 C 23.109375 73.683594 23.074219 73.421875 23.082031 73.164062 C 23.089844 71.90625 23.097656 70.613281 23.097656 69.316406 Z M 28.929688 76.199219 C 28.496094 76.671875 27.96875 77.054688 27.378906 77.320312 C 26.769531 77.597656 26.105469 77.734375 25.4375 77.726562 C 24.773438 77.71875 24.113281 77.570312 23.507812 77.289062 C 22.382812 76.761719 21.507812 75.816406 21.066406 74.652344 C 20.929688 74.285156 20.835938 73.90625 20.785156 73.519531 C 21.335938 73.492188 21.71875 73.464844 22.035156 73.4375 C 22.054688 73.707031 22.105469 73.972656 22.1875 74.230469 C 22.296875 74.574219 22.460938 74.894531 22.667969 75.1875 C 23.453125 76.285156 24.820312 76.808594 26.140625 76.515625 C 26.691406 76.390625 27.203125 76.125 27.625 75.746094 C 27.984375 75.414062 28.265625 75.007812 28.449219 74.554688 C 28.589844 74.191406 28.664062 73.808594 28.660156 73.421875 L 28.679688 73.421875 C 29.058594 73.457031 29.515625 73.488281 30.15625 73.515625 C 30.101562 73.910156 30.003906 74.296875 29.863281 74.667969 C 29.652344 75.230469 29.335938 75.75 28.929688 76.199219 Z M 37.699219 70.472656 L 37.699219 74.402344 C 37.675781 74.84375 37.378906 75.222656 36.957031 75.351562 C 36.894531 75.371094 36.828125 75.386719 36.761719 75.394531 L 36.492188 75.394531 L 35.253906 75.410156 L 35.238281 75.410156 C 34.957031 75.414062 34.734375 75.644531 34.738281 75.925781 L 34.75 77.496094 C 34 76.78125 33.359375 76.1875 32.804688 75.667969 L 32.785156 75.652344 C 32.71875 75.589844 32.632812 75.558594 32.542969 75.558594 C 31.617188 75.582031 30.988281 75.609375 30.480469 75.640625 C 30.578125 75.425781 30.664062 75.203125 30.734375 74.976562 C 30.914062 74.390625 30.996094 73.777344 30.972656 73.160156 L 30.972656 73.132812 C 30.96875 73.035156 30.925781 72.941406 30.851562 72.875 C 30.777344 72.804688 30.679688 72.773438 30.582031 72.777344 C 29.710938 72.808594 29.148438 72.847656 28.691406 72.890625 C 28.734375 72.277344 28.769531 71.53125 28.796875 70.6875 L 28.820312 69.964844 L 28.832031 69.589844 C 28.832031 69.460938 28.84375 69.347656 28.832031 69.191406 C 28.835938 69.074219 28.828125 68.957031 28.808594 68.839844 C 29.699219 68.894531 30.851562 68.941406 32.183594 68.980469 L 36.804688 69.085938 C 37.09375 69.132812 37.347656 69.296875 37.511719 69.535156 C 37.59375 69.65625 37.652344 69.792969 37.679688 69.933594 L 37.695312 70.039062 L 37.695312 70.148438 Z M 37.699219 70.472656 "/>
<path style=" stroke:none;fill-rule:nonzero;fill:rgb(0.392157%,0%,20%);fill-opacity:1;" d="M 36.121094 71.332031 C 36.15625 71.238281 36.167969 71.136719 36.15625 71.039062 C 36.164062 70.957031 36.152344 70.871094 36.121094 70.792969 C 34.96875 70.421875 31.488281 70.417969 30.332031 70.792969 C 30.296875 70.886719 30.285156 70.984375 30.296875 71.085938 C 30.289062 71.171875 30.300781 71.257812 30.332031 71.339844 C 31.488281 71.707031 34.96875 71.703125 36.121094 71.332031 Z M 32.816406 73.023438 C 32.796875 73.121094 32.789062 73.21875 32.792969 73.316406 C 32.789062 73.398438 32.796875 73.484375 32.816406 73.570312 C 33.476562 73.9375 35.472656 73.933594 36.136719 73.570312 C 36.15625 73.476562 36.164062 73.378906 36.15625 73.285156 C 36.160156 73.199219 36.15625 73.117188 36.136719 73.039062 C 35.472656 72.664062 33.476562 72.660156 32.816406 73.023438 Z M 32.816406 73.023438 "/>
<path style=" stroke:none;fill-rule:nonzero;fill:rgb(0%,0%,0%);fill-opacity:1;" d="M 45.574219 79.640625 L 45.273438 79.574219 L 45.289062 79.480469 L 46.257812 79.480469 L 46.25 79.558594 L 45.84375 79.636719 L 46.550781 82.105469 L 47.285156 79.585938 L 47.394531 79.570312 L 48.09375 82.105469 L 48.890625 79.648438 L 48.429688 79.566406 L 48.441406 79.480469 L 49.386719 79.480469 L 49.378906 79.570312 L 49.085938 79.640625 L 48.117188 82.574219 L 47.957031 82.605469 L 47.296875 80.105469 L 46.570312 82.574219 L 46.398438 82.605469 Z M 52.574219 79.640625 L 52.144531 79.578125 L 52.164062 79.480469 L 53.285156 79.480469 L 53.269531 79.578125 L 52.835938 79.636719 L 52.835938 82.382812 L 53.3125 82.429688 L 53.289062 82.542969 L 52.171875 82.542969 L 52.1875 82.4375 L 52.574219 82.363281 Z M 56.113281 80.273438 L 56.085938 79.480469 L 58.628906 79.480469 L 58.542969 80.296875 L 58.417969 80.28125 L 58.375 79.605469 L 57.464844 79.605469 L 57.464844 82.363281 L 57.902344 82.429688 L 57.871094 82.542969 L 56.757812 82.542969 L 56.769531 82.4375 L 57.203125 82.363281 L 57.203125 79.605469 L 56.324219 79.605469 L 56.238281 80.292969 Z M 61.839844 79.640625 L 61.398438 79.578125 L 61.40625 79.480469 L 62.527344 79.480469 L 62.519531 79.578125 L 62.101562 79.636719 L 62.101562 80.941406 L 63.867188 80.941406 L 63.867188 79.640625 L 63.414062 79.578125 L 63.433594 79.480469 L 64.550781 79.480469 L 64.535156 79.578125 L 64.121094 79.636719 L 64.121094 82.382812 L 64.574219 82.429688 L 64.554688 82.542969 L 63.4375 82.542969 L 63.460938 82.4375 L 63.867188 82.363281 L 63.867188 81.089844 L 62.101562 81.089844 L 62.101562 82.382812 L 62.558594 82.429688 L 62.53125 82.542969 L 61.421875 82.542969 L 61.429688 82.4375 L 61.839844 82.363281 Z M 70.917969 82.253906 L 70.988281 81.558594 L 71.109375 81.574219 L 71.175781 82.113281 C 71.230469 82.21875 71.324219 82.300781 71.449219 82.359375 C 71.578125 82.417969 71.714844 82.449219 71.855469 82.449219 C 72.019531 82.449219 72.160156 82.402344 72.273438 82.304688 C 72.390625 82.207031 72.445312 82.070312 72.445312 81.898438 C 72.445312 81.800781 72.421875 81.707031 72.367188 81.617188 C 72.316406 81.53125 72.25 81.453125 72.167969 81.382812 C 72.085938 81.316406 71.992188 81.25 71.894531 81.1875 C 71.792969 81.121094 71.691406 81.054688 71.589844 80.984375 C 71.488281 80.917969 71.398438 80.847656 71.316406 80.773438 C 71.234375 80.699219 71.164062 80.609375 71.117188 80.511719 C 71.0625 80.410156 71.035156 80.300781 71.035156 80.183594 C 71.035156 79.953125 71.121094 79.765625 71.285156 79.625 C 71.453125 79.484375 71.640625 79.414062 71.851562 79.414062 C 71.996094 79.414062 72.128906 79.4375 72.261719 79.484375 C 72.390625 79.53125 72.492188 79.597656 72.574219 79.6875 L 72.492188 80.449219 L 72.378906 80.429688 L 72.308594 79.832031 C 72.265625 79.753906 72.195312 79.6875 72.09375 79.636719 C 71.992188 79.582031 71.890625 79.554688 71.789062 79.554688 C 71.648438 79.554688 71.527344 79.601562 71.425781 79.691406 C 71.328125 79.785156 71.277344 79.910156 71.277344 80.066406 C 71.277344 80.171875 71.304688 80.273438 71.355469 80.367188 C 71.410156 80.460938 71.480469 80.542969 71.566406 80.609375 C 71.648438 80.679688 71.742188 80.75 71.84375 80.820312 C 71.945312 80.886719 72.046875 80.953125 72.148438 81.019531 C 72.25 81.089844 72.34375 81.15625 72.429688 81.230469 C 72.515625 81.300781 72.585938 81.386719 72.636719 81.480469 C 72.691406 81.578125 72.71875 81.679688 72.71875 81.785156 C 72.71875 82.019531 72.628906 82.21875 72.445312 82.375 C 72.265625 82.527344 72.027344 82.605469 71.726562 82.605469 C 71.558594 82.605469 71.398438 82.570312 71.257812 82.507812 C 71.113281 82.441406 71 82.359375 70.917969 82.253906 Z M 75.933594 79.640625 L 75.492188 79.578125 L 75.5 79.480469 L 76.621094 79.480469 L 76.609375 79.578125 L 76.195312 79.636719 L 76.195312 80.941406 L 77.960938 80.941406 L 77.960938 79.640625 L 77.507812 79.578125 L 77.523438 79.480469 L 78.644531 79.480469 L 78.621094 79.578125 L 78.210938 79.636719 L 78.210938 82.382812 L 78.664062 82.429688 L 78.644531 82.542969 L 77.53125 82.542969 L 77.550781 82.4375 L 77.960938 82.363281 L 77.960938 81.089844 L 76.195312 81.089844 L 76.195312 82.382812 L 76.652344 82.429688 L 76.621094 82.542969 L 75.511719 82.542969 L 75.523438 82.4375 L 75.933594 82.363281 Z M 81.855469 79.640625 L 81.429688 79.578125 L 81.445312 79.480469 L 82.570312 79.480469 L 82.554688 79.578125 L 82.121094 79.636719 L 82.121094 82.382812 L 82.597656 82.429688 L 82.574219 82.542969 L 81.457031 82.542969 L 81.464844 82.4375 L 81.855469 82.363281 Z M 85.726562 79.640625 L 85.363281 79.570312 L 85.375 79.480469 L 86.417969 79.480469 L 86.40625 79.570312 L 85.992188 79.636719 L 86.847656 82.148438 L 87.773438 79.640625 L 87.3125 79.570312 L 87.320312 79.480469 L 88.28125 79.480469 L 88.269531 79.570312 L 87.953125 79.636719 L 86.871094 82.570312 L 86.746094 82.605469 Z M 92.515625 79.871094 L 92.019531 81.230469 L 92.988281 81.230469 Z M 92.039062 82.542969 L 91.058594 82.542969 L 91.070312 82.4375 L 91.421875 82.363281 L 92.496094 79.457031 L 92.625 79.421875 L 93.648438 82.382812 L 93.972656 82.429688 L 93.953125 82.539062 L 92.945312 82.539062 L 92.96875 82.433594 L 93.378906 82.363281 L 93.035156 81.367188 L 91.972656 81.367188 L 91.609375 82.382812 L 92.0625 82.429688 Z M 97.75 82.542969 L 96.730469 82.542969 L 96.742188 82.460938 L 97.152344 82.386719 L 97.359375 79.648438 L 96.90625 79.570312 L 96.921875 79.480469 L 97.707031 79.480469 L 97.878906 79.945312 L 98.652344 81.980469 L 99.535156 79.835938 L 99.683594 79.480469 L 100.484375 79.480469 L 100.476562 79.570312 L 100.050781 79.640625 L 100.1875 82.402344 L 100.628906 82.441406 L 100.625 82.542969 L 99.488281 82.542969 L 99.503906 82.460938 L 99.925781 82.386719 L 99.785156 79.667969 L 98.640625 82.394531 L 98.515625 82.417969 L 97.511719 79.710938 L 97.320312 82.402344 L 97.765625 82.441406 Z M 106.972656 82.253906 L 107.042969 81.558594 L 107.160156 81.574219 L 107.230469 82.113281 C 107.285156 82.21875 107.375 82.300781 107.503906 82.359375 C 107.628906 82.417969 107.765625 82.449219 107.910156 82.449219 C 108.074219 82.449219 108.210938 82.402344 108.328125 82.304688 C 108.441406 82.207031 108.5 82.070312 108.5 81.898438 C 108.5 81.800781 108.472656 81.707031 108.421875 81.617188 C 108.371094 81.53125 108.304688 81.453125 108.21875 81.382812 C 108.136719 81.316406 108.046875 81.25 107.945312 81.1875 C 107.84375 81.121094 107.746094 81.054688 107.644531 80.984375 C 107.542969 80.917969 107.453125 80.847656 107.371094 80.773438 C 107.285156 80.699219 107.21875 80.609375 107.167969 80.511719 C 107.117188 80.410156 107.089844 80.300781 107.089844 80.183594 C 107.089844 79.953125 107.171875 79.765625 107.339844 79.625 C 107.507812 79.484375 107.695312 79.414062 107.90625 79.414062 C 108.046875 79.414062 108.183594 79.4375 108.3125 79.484375 C 108.441406 79.53125 108.546875 79.597656 108.625 79.6875 L 108.542969 80.449219 L 108.433594 80.429688 L 108.363281 79.832031 C 108.320312 79.753906 108.25 79.6875 108.148438 79.636719 C 108.046875 79.582031 107.945312 79.554688 107.84375 79.554688 C 107.699219 79.554688 107.578125 79.601562 107.476562 79.691406 C 107.378906 79.785156 107.332031 79.910156 107.332031 80.066406 C 107.332031 80.171875 107.355469 80.273438 107.410156 80.367188 C 107.464844 80.460938 107.535156 80.542969 107.617188 80.609375 C 107.703125 80.679688 107.796875 80.75 107.894531 80.820312 C 108 80.886719 108.101562 80.953125 108.203125 81.019531 C 108.304688 81.089844 108.398438 81.15625 108.484375 81.230469 C 108.570312 81.300781 108.636719 81.386719 108.691406 81.480469 C 108.742188 81.578125 108.769531 81.679688 108.769531 81.785156 C 108.769531 82.019531 108.679688 82.21875 108.5 82.375 C 108.320312 82.527344 108.082031 82.605469 107.78125 82.605469 C 107.609375 82.605469 107.453125 82.570312 107.308594 82.507812 C 107.164062 82.441406 107.050781 82.359375 106.972656 82.253906 Z M 111.964844 79.640625 L 111.542969 79.578125 L 111.554688 79.480469 L 112.679688 79.480469 L 112.660156 79.578125 L 112.234375 79.636719 L 112.234375 82.382812 L 112.707031 82.429688 L 112.6875 82.542969 L 111.566406 82.542969 L 111.578125 82.4375 L 111.964844 82.363281 Z M 115.929688 79.648438 L 115.476562 79.570312 L 115.492188 79.480469 L 116.238281 79.480469 L 117.941406 82.101562 L 117.941406 79.640625 L 117.492188 79.578125 L 117.503906 79.480469 L 118.546875 79.480469 L 118.527344 79.578125 L 118.121094 79.636719 L 118.121094 82.558594 L 117.988281 82.585938 L 116.113281 79.753906 L 116.113281 82.382812 L 116.566406 82.429688 L 116.539062 82.542969 L 115.503906 82.542969 L 115.519531 82.4375 L 115.929688 82.363281 Z M 121.324219 81.058594 C 121.324219 80.90625 121.34375 80.753906 121.382812 80.601562 C 121.425781 80.445312 121.488281 80.300781 121.570312 80.160156 C 121.65625 80.023438 121.753906 79.902344 121.867188 79.789062 C 121.980469 79.683594 122.121094 79.597656 122.28125 79.535156 C 122.441406 79.46875 122.613281 79.4375 122.792969 79.4375 C 122.96875 79.4375 123.144531 79.457031 123.3125 79.5 C 123.480469 79.539062 123.621094 79.601562 123.734375 79.6875 L 123.664062 80.46875 L 123.550781 80.460938 L 123.476562 79.875 C 123.410156 79.792969 123.3125 79.726562 123.179688 79.667969 C 123.050781 79.609375 122.894531 79.582031 122.710938 79.582031 C 122.375 79.582031 122.105469 79.714844 121.902344 79.976562 C 121.703125 80.242188 121.605469 80.578125 121.605469 80.984375 C 121.605469 81.132812 121.617188 81.273438 121.644531 81.410156 C 121.667969 81.542969 121.714844 81.675781 121.773438 81.800781 C 121.832031 81.929688 121.910156 82.039062 122 82.128906 C 122.089844 82.21875 122.207031 82.292969 122.347656 82.347656 C 122.492188 82.402344 122.648438 82.433594 122.824219 82.433594 C 123.078125 82.433594 123.289062 82.371094 123.460938 82.25 L 123.46875 81.332031 L 122.875 81.269531 L 122.886719 81.175781 L 124.070312 81.175781 L 124.050781 81.269531 L 123.722656 81.324219 L 123.722656 82.347656 C 123.566406 82.441406 123.402344 82.507812 123.222656 82.539062 C 123.046875 82.574219 122.828125 82.589844 122.570312 82.589844 C 122.398438 82.589844 122.238281 82.554688 122.085938 82.480469 C 121.933594 82.410156 121.804688 82.308594 121.691406 82.179688 C 121.578125 82.050781 121.488281 81.886719 121.421875 81.695312 C 121.355469 81.5 121.324219 81.289062 121.324219 81.058594 Z M 127.273438 79.640625 L 126.828125 79.578125 L 126.835938 79.480469 L 127.957031 79.480469 L 127.945312 79.578125 L 127.527344 79.636719 L 127.527344 80.941406 L 129.292969 80.941406 L 129.292969 79.640625 L 128.839844 79.578125 L 128.859375 79.480469 L 129.976562 79.480469 L 129.960938 79.578125 L 129.550781 79.636719 L 129.550781 82.382812 L 130 82.429688 L 129.980469 82.542969 L 128.867188 82.542969 L 128.886719 82.4375 L 129.292969 82.363281 L 129.292969 81.089844 L 127.527344 81.089844 L 127.527344 82.382812 L 127.988281 82.429688 L 127.960938 82.542969 L 126.847656 82.542969 L 126.859375 82.4375 L 127.273438 82.363281 Z M 127.273438 79.640625 "/>
</g>
</svg>
